<svg xmlns="http://www.w3.org/2000/svg" width="120" height="56" viewBox="0 0 120 56"><g fill="none" fill-rule="evenodd"><path fill="#FFF" d="M-48 0h1276v56H-48z"/><path fill="#F0F0F0" fill-rule="nonzero" d="M0 55h1180v1H0z"/><path fill="#E6003C" d="M0 0h120v56H0z"/><path d="M58.399 12.569h2.127v15.012h-2.127zm-1.64 15.129h-7.316V12.569h2.127v12.98h5.189zm19.564 0h-2.588l10.493-15.129h2.114v15.129h-2.114V16.025zm.833 2.018v15.245h7.187v-2.148h-5.189v-4.517h5.19v-2.031h-5.19v-4.517h5.19v-2.032zm20.742-15.361c1.179 1.424 1.41 4.167.115 5.837-1.294 1.67-3.305 1.67-3.305 1.67l4.24 5.72h-2.715l-4.959-7.028v7.027h-2.126V12.57h4.484c1.089 0 3.087.363 4.266 1.786zm-6.713 6.07h1.537c1.883 0 3.062-.596 3.536-1.307.474-.596.474-1.424.474-1.553 0-.117.116-1.67-.948-2.381-.59-.363-1.537-.596-2.947-.596h-1.652v5.837zm-17.694-5.837c1.18 1.074 2.242 2.744 2.242 5.604 0 3.339-1.768 5.008-2.242 5.474-.948 1.074-2.472 1.553-2.472 1.553-1.538.595-3.421.479-3.421.479h-4.484V12.686h5.073c3.536 0 4.83 1.553 5.304 1.902m-.23 7.39s.23-.829.23-1.903c0-.957-.23-1.902-.23-1.902s-.705-3.455-5.074-3.572H65.24v10.961h2.947c4.37.104 5.074-3.584 5.074-3.584m-27.828-2.019c-.115 3.21-2.473 5.72-5.42 5.72-2.83 0-5.304-2.381-5.304-5.474 0-3.456 2.473-5.837 5.305-5.837 3.062-.013 5.42 2.601 5.42 5.59m-5.42-7.75c-4.241 0-7.547 3.454-7.547 7.854s3.421 7.856 7.547 7.856c4.24 0 7.546-3.456 7.546-7.856 0-2.497-.82-4.167-2.242-5.474-1.294-1.54-3.19-2.38-5.304-2.38M72.556 29.6L65.24 40.315V29.6h-2.242L52.864 44.961h2.114l8.264-11.79.115 11.79 1.294-.116 8.02-11.673v11.673h2.114V29.6zM22.794 16.141c0-.233 0-2.019 1.538-3.21.59-.478 1.41-.827 2.716-.827.359 0 1.294.116 1.999.595.82.595 1.652 1.553 1.652 3.339h-1.998c-.116-1.307-1.064-2.02-1.884-2.02-1.178 0-1.998.713-1.998 2.02 0 0-.116 1.307.948 1.786 0 0 .59.362 1.063.478 1.064.233 2.127.712 2.588 1.074.705.596 1.768 1.424 1.768 3.689 0 2.019-1.063 4.646-4.484 4.646-3.305.116-4.6-3.21-4.6-4.646h1.884c0 .828.948 2.614 2.588 2.614 0 0 2.357.116 2.473-2.498 0-1.423-.82-1.786-.948-1.902-.36-.233-1.41-.595-1.41-.595-1.768-.48-2.127-.829-2.357-.958-.116-.246-1.653-1.32-1.538-3.585m63.548 13.575H91.3s3.536-.116 5.663 2.498c2.357 2.86 1.883 6.665 1.063 8.58-1.409 2.977-4.01 4.167-6.957 4.167h-4.714V29.716h-.013zm4.843 2.032h-2.716v11.078h2.946c1.999 0 5.19-1.307 5.19-5.474 0-4.543-3.537-5.487-5.42-5.604z" fill="#FFF" fill-rule="nonzero"/></g></svg>