<?xml version="1.0" encoding="utf-8"?>
<!-- Generator: Adobe Illustrator 25.4.2, SVG Export Plug-In . SVG Version: 6.00 Build 0)  -->
<svg version="1.1" id="Layer_1" xmlns="http://www.w3.org/2000/svg" xmlns:xlink="http://www.w3.org/1999/xlink" x="0px" y="0px"
	 viewBox="0 0 210 185" style="enable-background:new 0 0 210 185;" xml:space="preserve">
<style type="text/css">
	.st0{fill:#FFFFFF;}
</style>
<g>
	<rect x="5.7" y="180.5" class="st0" width="197.9" height="1.7"/>
	<polygon class="st0" points="48,140.5 78.8,54.9 62,54.9 40.1,115.8 18.7,54.9 1.9,54.9 32.3,140.5 	"/>
	<path class="st0" d="M98.7,61.9c-1.8-1.8-4-2.7-6.5-2.7c-2.6,0-4.7,0.9-6.5,2.7c-1.8,1.8-2.7,4-2.7,6.5c0,2.7,0.9,4.9,2.7,6.7
		c1.8,1.8,4,2.8,6.6,2.8c2.5,0,4.7-0.9,6.4-2.7s2.7-4,2.7-6.6C101.4,65.9,100.5,63.6,98.7,61.9z"/>
	<rect x="84.8" y="82.9" class="st0" width="14.5" height="57.8"/>
	<path class="st0" d="M123.2,61.9c-1.8-1.8-4-2.7-6.5-2.7c-2.6,0-4.7,0.9-6.5,2.7c-1.8,1.8-2.7,4-2.7,6.5c0,2.7,0.9,4.9,2.7,6.7
		c1.8,1.8,4,2.8,6.6,2.8c2.5,0,4.7-0.9,6.4-2.7c1.7-1.8,2.7-4,2.7-6.6C125.8,65.9,124.9,63.6,123.2,61.9z"/>
	<rect x="109.4" y="82.9" class="st0" width="14.5" height="57.8"/>
	<polygon class="st0" points="148,54.9 131.2,54.9 161.5,140.5 177.2,140.5 208.1,54.9 191.3,54.9 169.5,115.8 	"/>
	<path class="st0" d="M126.8,14.1c18.2,8,33.1,26.3,34.3,51.6h9.6c-1.1-32.3-22-50-41.2-57.2C93-5.3,46.2,16.9,44.9,65.7h1.3
		C48.1,17.2,95.4,0.3,126.8,14.1z"/>
	<polygon class="st0" points="10.4,162.8 18.6,162.8 18.6,173.5 23.3,173.5 23.3,149.1 18.6,149.1 18.6,158.3 10.4,158.3 
		10.4,149.1 5.7,149.1 5.7,173.5 10.4,173.5 	"/>
	<path class="st0" d="M47.5,165c0-3-0.9-5.4-2.7-7.2c-1.8-1.8-4.1-2.7-6.9-2.7c-2.7,0-4.9,0.9-6.7,2.7c-1.8,1.8-2.7,4.1-2.7,6.9
		c0,2.7,0.9,4.9,2.7,6.7c1.8,1.8,4.1,2.7,6.9,2.7c1.8,0,3.4-0.3,4.7-1c1.3-0.7,2.5-1.7,3.5-3l-3.8-1.8c-1.2,1.2-2.7,1.8-4.4,1.8
		c-1.5,0-2.6-0.4-3.6-1.1c-0.9-0.8-1.5-1.8-1.7-3h14.5L47.5,165z M33.1,162.2c0.4-1.1,1-1.8,1.7-2.3c1-0.7,2.1-1,3.4-1
		c1.2,0,2.1,0.3,3.1,1c0.9,0.7,1.5,1.5,1.8,2.3H33.1z"/>
	<path class="st0" d="M70.9,173.5v-18h-4.5v2c-0.8-0.8-1.7-1.5-2.7-1.8c-1-0.4-2-0.7-3-0.7c-2.3,0-4.4,0.9-6,2.7s-2.5,4.1-2.5,6.8
		s0.9,4.9,2.6,6.7c1.7,1.8,3.7,2.7,6,2.7c1,0,2-0.1,2.9-0.6c0.9-0.4,1.8-1,2.7-1.8v1.9L70.9,173.5L70.9,173.5z M65.2,168.4
		c-1,1-2.1,1.6-3.6,1.6c-1.3,0-2.6-0.4-3.5-1.6c-1-1-1.5-2.3-1.5-3.8s0.4-2.8,1.3-3.8c1-1,2.1-1.6,3.5-1.6c1.5,0,2.7,0.4,3.6,1.5
		c1,1,1.5,2.2,1.5,3.8C66.5,166.1,66.1,167.3,65.2,168.4z"/>
	<rect x="77.2" y="148.6" class="st0" width="4.5" height="25"/>
	<polygon class="st0" points="94.8,173.5 94.8,159.4 97.5,159.4 97.5,155.5 94.8,155.5 94.8,148.8 90.2,148.8 90.2,155.5 88,155.5 
		88,159.4 90.2,159.4 90.2,173.5 	"/>
	<path class="st0" d="M119.6,173.5v-12c0-2.1-0.6-3.7-1.6-4.7c-1.2-1.2-2.7-1.8-4.5-1.8c-0.9,0-1.8,0.1-2.7,0.6s-1.8,1-2.7,1.7v-8.8
		h-4.5v25h4.5v-7.2c0-1.9,0.1-3.2,0.1-3.7c0.2-1,0.7-1.8,1.3-2.5c0.7-0.7,1.5-0.9,2.3-0.9c0.7,0,1.2,0.1,1.8,0.6
		c0.4,0.4,0.8,0.9,1,1.7c0.1,0.7,0.3,2.1,0.3,4.2v7.9L119.6,173.5L119.6,173.5z"/>
	<path class="st0" d="M134.6,159.3c1,0,1.8,0.1,2.3,0.4c0.7,0.3,1.3,0.8,2.1,1.6l3.8-2.1c-0.9-1.2-2.1-2.3-3.6-3s-3-1-4.8-1
		c-1.9,0-3.7,0.4-5.3,1.2c-1.6,0.8-2.8,2-3.7,3.5c-0.9,1.5-1.2,3-1.2,4.8c0,2.5,0.9,4.7,2.7,6.6c1.8,1.8,4.2,2.8,7.5,2.8
		c3.6,0,6.3-1.2,8.2-3.8l-3.6-2.5c-1.1,1.3-2.7,2.1-4.7,2.1c-1.6,0-3-0.4-3.9-1.5c-1-1-1.6-2.2-1.6-3.8s0.4-2.9,1.6-3.8
		C131.5,159.8,132.9,159.3,134.6,159.3z"/>
	<path class="st0" d="M165.3,173.5v-18h-4.5v2c-0.8-0.8-1.7-1.5-2.7-1.8c-1-0.4-2-0.7-3-0.7c-2.3,0-4.4,0.9-6,2.7
		c-1.7,1.8-2.5,4.1-2.5,6.8s0.9,4.9,2.6,6.7c1.7,1.8,3.7,2.7,6,2.7c1,0,2-0.1,2.9-0.6c0.9-0.4,1.8-1,2.7-1.8v1.9L165.3,173.5
		L165.3,173.5z M159.6,168.4c-1,1-2.1,1.6-3.6,1.6c-1.3,0-2.6-0.4-3.5-1.6c-1-1-1.5-2.3-1.5-3.8s0.4-2.8,1.3-3.8
		c1-1,2.1-1.6,3.5-1.6c1.5,0,2.7,0.4,3.6,1.5c1,1,1.5,2.2,1.5,3.8C160.9,166.1,160.5,167.3,159.6,168.4z"/>
	<path class="st0" d="M178.8,159c0.3,0,0.8,0.1,1.2,0.4l1.5-3.9c-0.7-0.3-1.2-0.4-1.8-0.4c-0.8,0-1.6,0.2-2.2,0.7
		c-0.7,0.4-1.2,1.1-1.7,2v-2.2h-3.9v18h4.5v-7.2v-0.9c0-2.5,0.2-4.2,0.7-5C177.6,159.4,178.1,159,178.8,159z"/>
	<path class="st0" d="M194.1,155.1c-2.7,0-4.9,0.9-6.7,2.7c-1.8,1.8-2.7,4.1-2.7,6.9c0,2.7,0.9,4.9,2.7,6.7c1.8,1.8,4.1,2.7,6.9,2.7
		c1.8,0,3.4-0.3,4.7-1c1.3-0.7,2.5-1.7,3.5-3l-3.8-1.8c-1.2,1.2-2.7,1.8-4.4,1.8c-1.5,0-2.6-0.4-3.6-1.1c-0.9-0.8-1.5-1.8-1.7-3
		h14.8V165c0-3-0.9-5.4-2.7-7.2C199.1,156,196.9,155.1,194.1,155.1z M189.3,162.2c0.4-1.1,1-1.8,1.7-2.3c1-0.7,2.1-1,3.4-1
		s2.1,0.3,3.1,1c0.9,0.7,1.5,1.5,1.8,2.3H189.3z"/>
</g>
</svg>
